<svg width="24" height="24" viewBox="0 0 24 24" xmlns="http://www.w3.org/2000/svg">
  <path
    d="M13.06 12L17.78 7.28C17.92 7.14 18 6.95 18 6.75C18 6.34 17.66 6 17.25 6C17.05 6 16.86 6.08 16.72 6.22L12 10.94L7.28 6.22C7.14 6.08 6.96 6 6.75 6C6.34 6 6 6.34 6 6.75C6 6.95 6.09 7.14 6.22 7.28L10.94 12L6.22 16.72C6.09 16.86 6 17.04 6 17.25C6 17.66 6.34 18 6.75 18C6.96 18 7.14 17.91 7.28 17.78L12 13.06L16.72 17.78C16.86 17.91 17.05 18 17.25 18C17.66 18 18 17.66 18 17.25C18 17.04 17.92 16.86 17.78 16.72L13.06 12Z"/>
</svg>
